<?xml version="1.0" standalone="no"?>
<!DOCTYPE svg PUBLIC "-//W3C//DTD SVG 20010904//EN"
 "http://www.w3.org/TR/2001/REC-SVG-20010904/DTD/svg10.dtd">
<svg version="1.0" xmlns="http://www.w3.org/2000/svg"
 width="4096.000000pt" height="4096.000000pt" viewBox="0 0 4096.000000 4096.000000"
 preserveAspectRatio="xMidYMid meet">
<metadata>
Created by potrace 1.14, written by Peter Selinger 2001-2017
</metadata>
<g transform="translate(0.000000,4096.000000) scale(0.100000,-0.100000)"
fill="#000000" stroke="none">
<path d="M6149 30886 c-2 -2 -51 -7 -109 -10 -58 -4 -125 -9 -150 -11 -110
-12 -147 -17 -170 -20 -14 -2 -47 -7 -75 -10 -42 -5 -201 -31 -310 -50 -268
-49 -819 -213 -990 -295 -11 -5 -42 -18 -70 -29 -27 -11 -72 -30 -100 -42 -27
-13 -52 -23 -55 -24 -16 -1 -354 -174 -460 -235 -550 -317 -1006 -690 -1445
-1182 -71 -79 -209 -252 -293 -368 -51 -69 -95 -130 -99 -135 -19 -25 -122
-185 -185 -285 -143 -230 -332 -613 -438 -890 -72 -188 -191 -564 -214 -680
-3 -14 -12 -54 -21 -90 -13 -57 -21 -96 -40 -190 -3 -14 -12 -65 -21 -115 -8
-49 -17 -101 -19 -115 -3 -14 -7 -45 -10 -70 -3 -25 -8 -59 -10 -76 -2 -16 -7
-59 -10 -95 -4 -35 -8 -75 -10 -89 -25 -149 -25 -966 0 -1145 2 -16 7 -59 10
-95 7 -75 14 -133 21 -175 2 -16 8 -61 14 -100 5 -38 14 -95 20 -125 6 -30 13
-67 15 -83 51 -286 167 -682 290 -993 82 -206 217 -498 236 -510 5 -3 9 -11 9
-18 0 -49 402 -677 600 -935 270 -353 539 -628 880 -896 41 -32 77 -61 80 -64
3 -4 28 -22 55 -40 28 -19 52 -38 55 -41 16 -21 461 -310 476 -310 2 0 21 -11
42 -24 63 -39 321 -172 432 -221 58 -26 119 -53 135 -60 241 -108 746 -271
958 -309 15 -2 35 -7 45 -10 20 -6 65 -15 105 -21 15 -2 31 -6 35 -8 4 -3 34
-8 67 -12 32 -3 62 -8 65 -10 14 -9 313 -45 505 -62 141 -12 905 -15 4370 -17
2079 -1 3803 -5 3830 -9 95 -14 240 -37 270 -42 143 -28 430 -114 519 -156 22
-11 44 -19 48 -19 18 0 259 -123 363 -185 259 -156 496 -355 701 -590 60 -68
196 -244 217 -281 6 -10 -9 -33 -66 -104 -7 -8 -39 -51 -72 -94 -33 -44 -86
-114 -118 -155 -32 -42 -77 -101 -100 -131 -22 -30 -59 -78 -82 -105 -22 -28
-51 -66 -65 -84 -29 -39 -461 -602 -496 -646 -13 -16 -69 -90 -126 -164 -57
-74 -137 -178 -178 -232 -116 -150 -185 -240 -311 -404 -63 -82 -223 -289
-354 -460 -131 -170 -271 -353 -312 -405 -40 -52 -119 -156 -176 -230 -412
-538 -549 -717 -560 -730 -7 -8 -93 -120 -191 -248 l-179 -232 -2906 3 c-1598
2 -2924 7 -2946 11 -22 4 -80 14 -130 21 -454 70 -906 263 -1280 548 -44 33
-93 72 -109 86 -79 69 -146 133 -210 200 -39 40 -81 84 -93 96 -36 38 -171
214 -222 289 -112 167 -179 292 -274 506 -69 157 -154 459 -183 650 -3 19 -7
45 -9 58 -4 21 -14 133 -20 212 -2 19 -4 67 -4 105 l-1 70 -1857 0 -1858 -1 1
-129 c0 -132 13 -405 19 -415 2 -3 6 -50 10 -105 3 -55 8 -102 10 -105 1 -3 6
-34 9 -70 9 -87 31 -227 56 -360 6 -30 13 -71 16 -90 14 -87 100 -442 134
-555 32 -104 144 -445 155 -470 7 -16 25 -61 40 -100 15 -38 32 -83 40 -100
89 -207 121 -276 200 -435 51 -102 106 -209 124 -238 17 -29 31 -55 31 -57 0
-2 38 -66 83 -142 336 -557 748 -1061 1207 -1477 80 -72 147 -133 150 -136 3
-3 30 -25 60 -50 30 -25 57 -47 60 -50 16 -16 122 -99 240 -187 408 -304 880
-577 1329 -768 129 -55 387 -156 406 -159 6 -1 15 -4 20 -8 12 -7 300 -99 355
-113 8 -2 85 -22 171 -44 145 -38 439 -102 519 -114 19 -3 96 -14 170 -26 196
-29 202 -30 545 -58 120 -11 26838 -10 26985 0 138 9 210 15 270 22 25 3 63 7
85 9 57 6 136 16 165 21 14 3 43 7 65 10 39 6 236 40 285 50 14 3 37 7 52 10
30 6 274 62 328 77 19 5 44 11 55 13 11 3 58 16 105 30 47 15 92 28 100 30 8
2 83 26 165 53 533 177 1066 437 1540 751 74 49 298 206 324 227 9 7 73 58
142 112 70 55 164 133 210 173 46 41 100 87 119 104 19 16 125 120 235 230
325 325 573 627 814 990 51 77 101 151 110 165 10 14 51 84 93 155 296 511
490 962 649 1508 27 95 51 181 54 192 2 11 19 88 39 170 19 83 37 167 40 187
3 21 10 57 15 80 5 24 12 63 16 88 3 25 10 68 15 95 11 58 16 97 26 180 3 33
8 67 9 76 2 9 6 52 10 95 4 43 8 95 10 114 25 220 25 843 1 1080 -2 19 -7 67
-10 105 -9 96 -15 149 -26 225 -5 36 -12 83 -15 105 -7 47 -13 90 -20 125 -3
14 -7 40 -10 58 -3 18 -12 64 -20 102 -8 38 -17 84 -20 102 -5 26 -48 212 -70
298 -84 334 -225 727 -388 1085 -241 529 -631 1141 -956 1497 -19 21 -41 48
-49 60 -9 13 -28 35 -42 49 -14 14 -62 66 -107 116 -122 133 -341 347 -473
463 -34 30 -68 60 -74 65 -10 10 -181 151 -216 179 -554 439 -1238 812 -1917
1046 -182 63 -482 149 -639 185 -43 10 -221 46 -249 51 -16 3 -46 9 -65 14
-19 5 -60 12 -90 15 -30 4 -57 8 -60 10 -5 3 -56 10 -140 20 -25 3 -56 7 -70
10 -14 2 -52 7 -85 10 -33 4 -76 8 -95 10 -19 2 -75 7 -125 10 -49 4 -112 9
-140 12 -27 2 -1836 6 -4020 7 -2183 2 -3999 6 -4035 10 -377 43 -712 180
-1000 411 -85 68 -213 194 -276 270 -27 33 -52 62 -55 65 -13 10 -138 208
-173 273 -98 184 -181 441 -201 627 -4 36 -9 74 -11 85 -7 33 -6 396 1 455 6
49 26 176 40 254 3 15 25 88 49 160 149 453 459 830 876 1068 248 141 484 215
785 244 62 6 8693 5 8755 -1 52 -5 71 -8 158 -21 75 -11 236 -55 330 -90 268
-100 501 -253 704 -460 319 -327 507 -738 543 -1189 2 -16 3 -81 4 -143 l1
-112 638 5 c350 2 990 7 1422 11 668 5 1468 12 1617 13 l43 1 -5 222 c-3 123
-7 243 -10 268 -2 25 -7 79 -11 120 -14 173 -20 227 -45 385 -12 72 -23 137
-24 145 -2 8 -11 51 -20 95 -48 233 -121 501 -192 700 -19 55 -42 120 -50 145
-9 25 -20 49 -24 55 -5 5 -9 15 -9 22 0 39 -208 484 -316 676 -96 170 -305
500 -355 561 -5 6 -45 58 -88 116 -158 209 -279 348 -496 565 -147 148 -260
254 -355 332 -14 12 -54 45 -90 75 -209 174 -518 383 -800 543 -146 83 -562
285 -586 285 -3 0 -24 9 -48 20 -89 40 -473 173 -566 196 -8 2 -69 17 -135 35
-66 17 -127 32 -135 34 -152 32 -314 64 -345 69 -22 3 -53 8 -70 11 -61 10
-271 36 -335 41 -36 3 -90 8 -120 11 -59 7 -28754 16 -28761 9z m14656 -3733
c-17 -42 -86 -257 -113 -353 -68 -239 -133 -548 -158 -750 -2 -19 -6 -48 -9
-65 -2 -16 -7 -59 -10 -95 -4 -36 -8 -75 -10 -88 -2 -12 -7 -75 -11 -140 -3
-64 -8 -119 -10 -121 -9 -10 -12 9 -18 109 -8 134 -31 358 -41 406 -2 11 -7
45 -11 75 -3 30 -8 57 -10 61 -3 4 -7 26 -10 50 -3 24 -16 93 -30 155 -13 61
-25 122 -28 135 -16 84 -102 383 -151 527 -19 58 -35 106 -35 108 0 2 149 3
331 3 311 0 331 -1 324 -17z m-7844 -25 c4 -7 17 -24 28 -38 20 -26 172 -224
264 -343 52 -69 138 -179 160 -207 7 -8 45 -58 84 -110 40 -52 123 -161 185
-242 62 -80 185 -240 272 -354 87 -114 165 -214 172 -223 7 -9 131 -169 274
-356 144 -187 269 -350 278 -362 9 -12 63 -82 119 -155 56 -73 175 -227 264
-342 88 -115 178 -232 199 -260 48 -63 166 -217 177 -231 8 -9 253 -328 412
-535 36 -47 69 -89 73 -95 5 -5 96 -123 203 -262 l194 -252 -82 30 c-249 93
-472 163 -707 223 -96 24 -188 46 -205 49 -16 3 -73 14 -125 25 -52 11 -115
23 -140 27 -24 4 -47 8 -50 10 -3 1 -30 6 -61 9 -31 4 -65 8 -75 10 -59 11
-160 24 -239 31 -33 3 -71 7 -85 10 -25 4 -121 12 -263 22 -40 3 -1854 6
-4032 7 -2178 2 -3985 6 -4015 10 -120 15 -137 18 -205 32 -38 8 -81 17 -94
20 -68 14 -249 83 -355 135 -438 217 -788 599 -951 1039 -15 41 -31 84 -35 95
-18 44 -59 221 -76 330 -10 63 -13 504 -4 565 5 30 11 71 13 90 45 329 227
709 467 974 250 278 584 482 940 575 171 45 270 58 460 60 74 1 135 3 136 4 1
1 1446 1 3210 0 2652 -1 3208 -4 3215 -15z m7526 -1613 c0 -8 -4 -15 -9 -15
-4 0 -8 7 -8 15 0 8 4 15 8 15 5 0 9 -7 9 -15z m-7 -393 c2 -223 24 -564 44
-692 2 -14 7 -47 11 -75 3 -27 9 -66 11 -85 33 -245 124 -619 224 -920 72
-219 114 -327 194 -504 20 -44 34 -78 32 -75 -2 2 -48 60 -100 129 -53 69
-102 132 -109 140 -7 8 -50 65 -96 125 -47 61 -108 139 -136 175 -54 68 -102
132 -384 500 -94 124 -177 232 -184 240 -7 8 -61 80 -120 158 -60 79 -115 151
-122 160 -12 15 -460 601 -538 705 l-28 37 263 2 c145 2 437 4 651 5 l387 1 0
-26z m2307 -4561 c67 -50 133 -95 145 -102 13 -7 25 -15 28 -18 3 -3 25 -19
50 -35 25 -16 57 -37 72 -48 15 -10 29 -18 32 -18 3 0 24 -13 48 -29 24 -15
66 -41 93 -56 28 -16 91 -51 140 -78 295 -165 731 -347 1070 -446 130 -38 210
-60 235 -65 14 -2 32 -7 40 -10 8 -3 26 -7 40 -10 14 -2 70 -14 125 -26 55
-12 136 -27 180 -35 44 -7 94 -16 110 -19 62 -10 252 -34 340 -41 39 -4 81 -9
95 -11 70 -13 891 -16 4375 -18 2090 -2 3820 -6 3845 -9 25 -4 95 -14 155 -23
428 -62 885 -249 1250 -513 593 -427 1003 -1061 1140 -1759 41 -211 53 -348
50 -582 -2 -118 -5 -233 -9 -255 -3 -22 -8 -60 -11 -85 -8 -60 -14 -100 -20
-130 -3 -14 -7 -36 -10 -50 -16 -83 -28 -137 -35 -150 -4 -8 -10 -28 -13 -45
-15 -95 -140 -408 -226 -570 -42 -79 -158 -270 -182 -299 -5 -6 -48 -62 -96
-125 -155 -203 -397 -432 -614 -583 -250 -175 -558 -327 -804 -398 -122 -35
-192 -53 -270 -70 -90 -18 -120 -23 -205 -34 -25 -4 -63 -10 -85 -13 -61 -11
-7008 -13 -7090 -2 -160 20 -287 42 -355 59 -25 6 -58 13 -75 16 -38 7 -312
97 -357 117 -18 8 -70 32 -116 52 -585 258 -1103 762 -1386 1348 -47 98 -115
260 -121 289 -2 9 -8 25 -13 35 -25 46 -98 341 -118 473 -3 19 -7 44 -9 56 -2
11 -6 49 -10 85 -3 35 -8 82 -10 104 -3 22 -5 75 -5 117 -1 47 -6 80 -13 85
-7 5 -803 9 -1855 8 -1014 -1 -1845 2 -1847 5 -2 3 -6 93 -10 200 -3 107 -8
215 -10 240 -2 25 -7 79 -10 120 -6 81 -11 128 -21 202 -5 44 -3 50 40 105 46
57 498 640 546 703 14 18 69 90 123 159 53 69 132 171 175 226 42 55 82 107
89 115 7 8 76 98 155 200 78 102 146 190 151 195 4 6 76 98 158 205 83 107
158 204 167 215 9 11 46 59 82 105 36 47 70 92 77 100 6 8 41 53 77 100 36 47
69 90 73 95 5 6 55 71 113 145 57 74 108 140 113 145 34 42 180 233 187 246 6
11 2 23 -13 40 -12 13 -51 62 -86 109 -54 71 -59 80 -30 58 19 -15 89 -68 156
-117z m-2301 -4178 c2 -63 13 -246 19 -303 2 -25 7 -74 9 -109 3 -35 8 -78 10
-95 3 -17 8 -56 11 -86 13 -127 74 -461 116 -635 11 -44 21 -89 23 -101 17
-89 149 -522 196 -644 12 -30 25 -66 30 -80 14 -42 52 -137 115 -285 9 -22 26
-60 37 -85 11 -25 33 -73 49 -107 l28 -63 -649 0 -649 0 35 78 c20 42 40 87
45 100 5 13 21 49 35 80 43 94 168 415 178 457 1 6 22 69 45 140 49 152 131
454 156 575 10 47 18 90 20 95 1 6 5 26 8 45 4 19 10 49 13 65 28 148 65 395
80 542 8 84 24 296 29 403 3 58 3 60 8 60 1 0 3 -21 3 -47z"/>
</g>
</svg>
